<?xml version="1.0" encoding="utf-8"?>
<!-- Generator: Adobe Illustrator 28.4.1, SVG Export Plug-In . SVG Version: 6.00 Build 0)  -->
<svg version="1.1" id="Capa_1" xmlns="http://www.w3.org/2000/svg" xmlns:xlink="http://www.w3.org/1999/xlink" x="0px" y="0px"
	 viewBox="0 0 595.3 841.9" style="enable-background:new 0 0 595.3 841.9;" xml:space="preserve">
<style type="text/css">
	.st0{fill:#E03030;}
</style>
<g id="XMLID_00000052095029389229921400000004271200040223310472_">
	<g>
		<path class="st0" d="M561.2,314.1c1.9,33.3-2.6,67.9-13.5,102.6c-5.6,18-12.8,36.1-21.8,54.1c-8.9,18.1-19.4,36.1-31.5,54
			c-43.6,64.5-164.3,214.3-196.8,254.5c-32.5-40.2-153.1-189.9-196.8-254.5c-24.2-35.8-42.1-72.2-53.3-108.2
			C36.8,382,32.2,347.5,34.1,314.1c1.8-32.7,9.8-64.2,23.6-94c13.8-29.6,33.6-57.5,58.7-82.6c48.4-48.4,112.8-75.1,181.2-75.1
			s132.7,26.7,181.2,75.1c25.1,25.1,44.8,52.9,58.6,82.6C551.5,249.8,559.4,281.4,561.2,314.1z M468.8,326.4
			c0-94.3-76.7-171.1-171.1-171.1s-171.1,76.7-171.1,171.1s76.7,171.1,171.1,171.1S468.8,420.8,468.8,326.4z"/>
	</g>
</g>
</svg>
